TITLE ""
FILE "TOEIC LR Kinnojyukugo_14.mp3" MP3
  TRACK 01 AUDIO
    TITLE "TOEIC LR Kinnojyukugo_14_001"
    INDEX 01 00:00:00
  TRACK 02 AUDIO
    TITLE "TOEIC LR Kinnojyukugo_14_002"
    INDEX 01 00:00:12
  TRACK 03 AUDIO
    TITLE "TOEIC LR Kinnojyukugo_14_003"
    INDEX 01 00:01:41
  TRACK 04 AUDIO
    TITLE "TOEIC LR Kinnojyukugo_14_004"
    INDEX 01 00:01:72
  TRACK 05 AUDIO
    TITLE "TOEIC LR Kinnojyukugo_14_005"
    INDEX 01 00:03:36
  TRACK 06 AUDIO
    TITLE "TOEIC LR Kinnojyukugo_14_006"
    INDEX 01 00:04:37
  TRACK 07 AUDIO
    TITLE "TOEIC LR Kinnojyukugo_14_007"
    INDEX 01 00:06:15
  TRACK 08 AUDIO
    TITLE "TOEIC LR Kinnojyukugo_14_008"
    INDEX 01 00:06:52
  TRACK 09 AUDIO
    TITLE "TOEIC LR Kinnojyukugo_14_009"
    INDEX 01 00:08:14
  TRACK 10 AUDIO
    TITLE "TOEIC LR Kinnojyukugo_14_010"
    INDEX 01 00:09:15
  TRACK 11 AUDIO
    TITLE "TOEIC LR Kinnojyukugo_14_011"
    INDEX 01 00:10:34
  TRACK 12 AUDIO
    TITLE "TOEIC LR Kinnojyukugo_14_012"
    INDEX 01 00:10:71
  TRACK 13 AUDIO
    TITLE "TOEIC LR Kinnojyukugo_14_013"
    INDEX 01 00:12:23
  TRACK 14 AUDIO
    TITLE "TOEIC LR Kinnojyukugo_14_014"
    INDEX 01 00:13:27
  TRACK 15 AUDIO
    TITLE "TOEIC LR Kinnojyukugo_14_015"
    INDEX 01 00:14:54
  TRACK 16 AUDIO
    TITLE "TOEIC LR Kinnojyukugo_14_016"
    INDEX 01 00:15:18
  TRACK 17 AUDIO
    TITLE "TOEIC LR Kinnojyukugo_14_017"
    INDEX 01 00:16:58
  TRACK 18 AUDIO
    TITLE "TOEIC LR Kinnojyukugo_14_018"
    INDEX 01 00:17:58
  TRACK 19 AUDIO
    TITLE "TOEIC LR Kinnojyukugo_14_019"
    INDEX 01 00:20:54
  TRACK 20 AUDIO
    TITLE "TOEIC LR Kinnojyukugo_14_020"
    INDEX 01 00:21:22
  TRACK 21 AUDIO
    TITLE "TOEIC LR Kinnojyukugo_14_021"
    INDEX 01 00:22:51
  TRACK 22 AUDIO
    TITLE "TOEIC LR Kinnojyukugo_14_022"
    INDEX 01 00:23:54
  TRACK 23 AUDIO
    TITLE "TOEIC LR Kinnojyukugo_14_023"
    INDEX 01 00:24:68
  TRACK 24 AUDIO
    TITLE "TOEIC LR Kinnojyukugo_14_024"
    INDEX 01 00:25:28
  TRACK 25 AUDIO
    TITLE "TOEIC LR Kinnojyukugo_14_025"
    INDEX 01 00:26:55
  TRACK 26 AUDIO
    TITLE "TOEIC LR Kinnojyukugo_14_026"
    INDEX 01 00:27:52
  TRACK 27 AUDIO
    TITLE "TOEIC LR Kinnojyukugo_14_027"
    INDEX 01 00:29:18
  TRACK 28 AUDIO
    TITLE "TOEIC LR Kinnojyukugo_14_028"
    INDEX 01 00:29:49
  TRACK 29 AUDIO
    TITLE "TOEIC LR Kinnojyukugo_14_029"
    INDEX 01 00:31:21
  TRACK 30 AUDIO
    TITLE "TOEIC LR Kinnojyukugo_14_030"
    INDEX 01 00:32:18
  TRACK 31 AUDIO
    TITLE "TOEIC LR Kinnojyukugo_14_031"
    INDEX 01 00:33:61
  TRACK 32 AUDIO
    TITLE "TOEIC LR Kinnojyukugo_14_032"
    INDEX 01 00:34:25
  TRACK 33 AUDIO
    TITLE "TOEIC LR Kinnojyukugo_14_033"
    INDEX 01 00:35:65
  TRACK 34 AUDIO
    TITLE "TOEIC LR Kinnojyukugo_14_034"
    INDEX 01 00:36:65
  TRACK 35 AUDIO
    TITLE "TOEIC LR Kinnojyukugo_14_035"
    INDEX 01 00:37:70
  TRACK 36 AUDIO
    TITLE "TOEIC LR Kinnojyukugo_14_036"
    INDEX 01 00:38:32
  TRACK 37 AUDIO
    TITLE "TOEIC LR Kinnojyukugo_14_037"
    INDEX 01 00:40:06
  TRACK 38 AUDIO
    TITLE "TOEIC LR Kinnojyukugo_14_038"
    INDEX 01 00:41:05
  TRACK 39 AUDIO
    TITLE "TOEIC LR Kinnojyukugo_14_039"
    INDEX 01 00:42:34
  TRACK 40 AUDIO
    TITLE "TOEIC LR Kinnojyukugo_14_040"
    INDEX 01 00:42:73
  TRACK 41 AUDIO
    TITLE "TOEIC LR Kinnojyukugo_14_041"
    INDEX 01 00:44:59
  TRACK 42 AUDIO
    TITLE "TOEIC LR Kinnojyukugo_14_042"
    INDEX 01 00:45:60
  TRACK 43 AUDIO
    TITLE "TOEIC LR Kinnojyukugo_14_043"
    INDEX 01 00:48:41
  TRACK 44 AUDIO
    TITLE "TOEIC LR Kinnojyukugo_14_044"
    INDEX 01 00:49:05
  TRACK 45 AUDIO
    TITLE "TOEIC LR Kinnojyukugo_14_045"
    INDEX 01 00:50:18
  TRACK 46 AUDIO
    TITLE "TOEIC LR Kinnojyukugo_14_046"
    INDEX 01 00:51:27
  TRACK 47 AUDIO
    TITLE "TOEIC LR Kinnojyukugo_14_047"
    INDEX 01 00:52:64
  TRACK 48 AUDIO
    TITLE "TOEIC LR Kinnojyukugo_14_048"
    INDEX 01 00:53:28
  TRACK 49 AUDIO
    TITLE "TOEIC LR Kinnojyukugo_14_049"
    INDEX 01 00:54:49
  TRACK 50 AUDIO
    TITLE "TOEIC LR Kinnojyukugo_14_050"
    INDEX 01 00:55:60
  TRACK 51 AUDIO
    TITLE "TOEIC LR Kinnojyukugo_14_051"
    INDEX 01 00:59:60
  TRACK 52 AUDIO
    TITLE "TOEIC LR Kinnojyukugo_14_052"
    INDEX 01 01:00:22
  TRACK 53 AUDIO
    TITLE "TOEIC LR Kinnojyukugo_14_053"
    INDEX 01 01:02:29
  TRACK 54 AUDIO
    TITLE "TOEIC LR Kinnojyukugo_14_054"
    INDEX 01 01:03:27
  TRACK 55 AUDIO
    TITLE "TOEIC LR Kinnojyukugo_14_055"
    INDEX 01 01:04:49
  TRACK 56 AUDIO
    TITLE "TOEIC LR Kinnojyukugo_14_056"
    INDEX 01 01:05:14
  TRACK 57 AUDIO
    TITLE "TOEIC LR Kinnojyukugo_14_057"
    INDEX 01 01:06:58
  TRACK 58 AUDIO
    TITLE "TOEIC LR Kinnojyukugo_14_058"
    INDEX 01 01:07:58
  TRACK 59 AUDIO
    TITLE "TOEIC LR Kinnojyukugo_14_059"
    INDEX 01 01:08:67
  TRACK 60 AUDIO
    TITLE "TOEIC LR Kinnojyukugo_14_060"
    INDEX 01 01:09:31
  TRACK 61 AUDIO
    TITLE "TOEIC LR Kinnojyukugo_14_061"
    INDEX 01 01:10:62
  TRACK 62 AUDIO
    TITLE "TOEIC LR Kinnojyukugo_14_062"
    INDEX 01 01:11:63
  TRACK 63 AUDIO
    TITLE "TOEIC LR Kinnojyukugo_14_063"
    INDEX 01 01:13:01
  TRACK 64 AUDIO
    TITLE "TOEIC LR Kinnojyukugo_14_064"
    INDEX 01 01:13:41
  TRACK 65 AUDIO
    TITLE "TOEIC LR Kinnojyukugo_14_065"
    INDEX 01 01:15:10
  TRACK 66 AUDIO
    TITLE "TOEIC LR Kinnojyukugo_14_066"
    INDEX 01 01:16:13
  TRACK 67 AUDIO
    TITLE "TOEIC LR Kinnojyukugo_14_067"
    INDEX 01 01:17:46
  TRACK 68 AUDIO
    TITLE "TOEIC LR Kinnojyukugo_14_068"
    INDEX 01 01:18:10
  TRACK 69 AUDIO
    TITLE "TOEIC LR Kinnojyukugo_14_069"
    INDEX 01 01:19:53
  TRACK 70 AUDIO
    TITLE "TOEIC LR Kinnojyukugo_14_070"
    INDEX 01 01:20:52
  TRACK 71 AUDIO
    TITLE "TOEIC LR Kinnojyukugo_14_071"
    INDEX 01 01:21:54
  TRACK 72 AUDIO
    TITLE "TOEIC LR Kinnojyukugo_14_072"
    INDEX 01 01:22:16
  TRACK 73 AUDIO
    TITLE "TOEIC LR Kinnojyukugo_14_073"
    INDEX 01 01:23:68
  TRACK 74 AUDIO
    TITLE "TOEIC LR Kinnojyukugo_14_074"
    INDEX 01 01:24:68
  TRACK 75 AUDIO
    TITLE "TOEIC LR Kinnojyukugo_14_075"
    INDEX 01 01:26:47
  TRACK 76 AUDIO
    TITLE "TOEIC LR Kinnojyukugo_14_076"
    INDEX 01 01:27:09
  TRACK 77 AUDIO
    TITLE "TOEIC LR Kinnojyukugo_14_077"
    INDEX 01 01:28:38
  TRACK 78 AUDIO
    TITLE "TOEIC LR Kinnojyukugo_14_078"
    INDEX 01 01:29:40
  TRACK 79 AUDIO
    TITLE "TOEIC LR Kinnojyukugo_14_079"
    INDEX 01 01:30:68
  TRACK 80 AUDIO
    TITLE "TOEIC LR Kinnojyukugo_14_080"
    INDEX 01 01:31:33
  TRACK 81 AUDIO
    TITLE "TOEIC LR Kinnojyukugo_14_081"
    INDEX 01 01:33:02
  TRACK 82 AUDIO
    TITLE "TOEIC LR Kinnojyukugo_14_082"
    INDEX 01 01:34:02
  TRACK 83 AUDIO
    TITLE "TOEIC LR Kinnojyukugo_14_083"
    INDEX 01 01:36:02
  TRACK 84 AUDIO
    TITLE "TOEIC LR Kinnojyukugo_14_084"
    INDEX 01 01:36:40
  TRACK 85 AUDIO
    TITLE "TOEIC LR Kinnojyukugo_14_085"
    INDEX 01 01:38:13
  TRACK 86 AUDIO
    TITLE "TOEIC LR Kinnojyukugo_14_086"
    INDEX 01 01:39:13
  TRACK 87 AUDIO
    TITLE "TOEIC LR Kinnojyukugo_14_087"
    INDEX 01 01:40:24
  TRACK 88 AUDIO
    TITLE "TOEIC LR Kinnojyukugo_14_088"
    INDEX 01 01:40:63
  TRACK 89 AUDIO
    TITLE "TOEIC LR Kinnojyukugo_14_089"
    INDEX 01 01:42:31
  TRACK 90 AUDIO
    TITLE "TOEIC LR Kinnojyukugo_14_090"
    INDEX 01 01:43:30
  TRACK 91 AUDIO
    TITLE "TOEIC LR Kinnojyukugo_14_091"
    INDEX 01 01:44:61
  TRACK 92 AUDIO
    TITLE "TOEIC LR Kinnojyukugo_14_092"
    INDEX 01 01:45:25
  TRACK 93 AUDIO
    TITLE "TOEIC LR Kinnojyukugo_14_093"
    INDEX 01 01:46:69
  TRACK 94 AUDIO
    TITLE "TOEIC LR Kinnojyukugo_14_094"
    INDEX 01 01:47:69
  TRACK 95 AUDIO
    TITLE "TOEIC LR Kinnojyukugo_14_095"
    INDEX 01 01:49:27
  TRACK 96 AUDIO
    TITLE "TOEIC LR Kinnojyukugo_14_096"
    INDEX 01 01:49:64
  TRACK 97 AUDIO
    TITLE "TOEIC LR Kinnojyukugo_14_097"
    INDEX 01 01:52:62
  TRACK 98 AUDIO
    TITLE "TOEIC LR Kinnojyukugo_14_098"
    INDEX 01 01:53:62
  TRACK 99 AUDIO
    TITLE "TOEIC LR Kinnojyukugo_14_099"
    INDEX 01 01:55:41
  TRACK 100 AUDIO
    TITLE "TOEIC LR Kinnojyukugo_14_100"
    INDEX 01 01:56:05
  TRACK 101 AUDIO
    TITLE "TOEIC LR Kinnojyukugo_14_101"
    INDEX 01 01:57:63
  TRACK 102 AUDIO
    TITLE "TOEIC LR Kinnojyukugo_14_102"
    INDEX 01 01:58:59
  TRACK 103 AUDIO
    TITLE "TOEIC LR Kinnojyukugo_14_103"
    INDEX 01 02:00:07
  TRACK 104 AUDIO
    TITLE "TOEIC LR Kinnojyukugo_14_104"
    INDEX 01 02:00:40
  TRACK 105 AUDIO
    TITLE "TOEIC LR Kinnojyukugo_14_105"
    INDEX 01 02:01:63
  TRACK 106 AUDIO
    TITLE "TOEIC LR Kinnojyukugo_14_106"
    INDEX 01 02:02:63
  TRACK 107 AUDIO
    TITLE "TOEIC LR Kinnojyukugo_14_107"
    INDEX 01 02:03:66
  TRACK 108 AUDIO
    TITLE "TOEIC LR Kinnojyukugo_14_108"
    INDEX 01 02:04:28
  TRACK 109 AUDIO
    TITLE "TOEIC LR Kinnojyukugo_14_109"
    INDEX 01 02:05:59
  TRACK 110 AUDIO
    TITLE "TOEIC LR Kinnojyukugo_14_110"
    INDEX 01 02:06:62
  TRACK 111 AUDIO
    TITLE "TOEIC LR Kinnojyukugo_14_111"
    INDEX 01 02:08:10
  TRACK 112 AUDIO
    TITLE "TOEIC LR Kinnojyukugo_14_112"
    INDEX 01 02:08:57
  TRACK 113 AUDIO
    TITLE "TOEIC LR Kinnojyukugo_14_113"
    INDEX 01 02:10:15
  TRACK 114 AUDIO
    TITLE "TOEIC LR Kinnojyukugo_14_114"
    INDEX 01 02:11:22
  TRACK 115 AUDIO
    TITLE "TOEIC LR Kinnojyukugo_14_115"
    INDEX 01 02:12:69
  TRACK 116 AUDIO
    TITLE "TOEIC LR Kinnojyukugo_14_116"
    INDEX 01 02:13:29
  TRACK 117 AUDIO
    TITLE "TOEIC LR Kinnojyukugo_14_117"
    INDEX 01 02:14:58
  TRACK 118 AUDIO
    TITLE "TOEIC LR Kinnojyukugo_14_118"
    INDEX 01 02:15:57
  TRACK 119 AUDIO
    TITLE "TOEIC LR Kinnojyukugo_14_119"
    INDEX 01 02:16:67
  TRACK 120 AUDIO
    TITLE "TOEIC LR Kinnojyukugo_14_120"
    INDEX 01 02:17:29
  TRACK 121 AUDIO
    TITLE "TOEIC LR Kinnojyukugo_14_121"
    INDEX 01 02:19:04
  TRACK 122 AUDIO
    TITLE "TOEIC LR Kinnojyukugo_14_122"
    INDEX 01 02:20:04
  TRACK 123 AUDIO
    TITLE "TOEIC LR Kinnojyukugo_14_123"
    INDEX 01 02:22:07
  TRACK 124 AUDIO
    TITLE "TOEIC LR Kinnojyukugo_14_124"
    INDEX 01 02:22:46
  TRACK 125 AUDIO
    TITLE "TOEIC LR Kinnojyukugo_14_125"
    INDEX 01 02:24:35
  TRACK 126 AUDIO
    TITLE "TOEIC LR Kinnojyukugo_14_126"
    INDEX 01 02:25:32
  TRACK 127 AUDIO
    TITLE "TOEIC LR Kinnojyukugo_14_127"
    INDEX 01 02:26:69
  TRACK 128 AUDIO
    TITLE "TOEIC LR Kinnojyukugo_14_128"
    INDEX 01 02:27:33
  TRACK 129 AUDIO
    TITLE "TOEIC LR Kinnojyukugo_14_129"
    INDEX 01 02:28:44
  TRACK 130 AUDIO
    TITLE "TOEIC LR Kinnojyukugo_14_130"
    INDEX 01 02:29:46
  TRACK 131 AUDIO
    TITLE "TOEIC LR Kinnojyukugo_14_131"
    INDEX 01 02:31:25
  TRACK 132 AUDIO
    TITLE "TOEIC LR Kinnojyukugo_14_132"
    INDEX 01 02:31:62
  TRACK 133 AUDIO
    TITLE "TOEIC LR Kinnojyukugo_14_133"
    INDEX 01 02:33:28
  TRACK 134 AUDIO
    TITLE "TOEIC LR Kinnojyukugo_14_134"
    INDEX 01 02:34:27
  TRACK 135 AUDIO
    TITLE "TOEIC LR Kinnojyukugo_14_135"
    INDEX 01 02:36:01
  TRACK 136 AUDIO
    TITLE "TOEIC LR Kinnojyukugo_14_136"
    INDEX 01 02:36:36
  TRACK 137 AUDIO
    TITLE "TOEIC LR Kinnojyukugo_14_137"
    INDEX 01 02:38:17
  TRACK 138 AUDIO
    TITLE "TOEIC LR Kinnojyukugo_14_138"
    INDEX 01 02:39:19
  TRACK 139 AUDIO
    TITLE "TOEIC LR Kinnojyukugo_14_139"
    INDEX 01 02:40:55
  TRACK 140 AUDIO
    TITLE "TOEIC LR Kinnojyukugo_14_140"
    INDEX 01 02:41:18
  TRACK 141 AUDIO
    TITLE "TOEIC LR Kinnojyukugo_14_141"
    INDEX 01 02:42:56
  TRACK 142 AUDIO
    TITLE "TOEIC LR Kinnojyukugo_14_142"
    INDEX 01 02:43:58
  TRACK 143 AUDIO
    TITLE "TOEIC LR Kinnojyukugo_14_143"
    INDEX 01 02:45:35
  TRACK 144 AUDIO
    TITLE "TOEIC LR Kinnojyukugo_14_144"
    INDEX 01 02:45:72
  TRACK 145 AUDIO
    TITLE "TOEIC LR Kinnojyukugo_14_145"
    INDEX 01 02:47:50
  TRACK 146 AUDIO
    TITLE "TOEIC LR Kinnojyukugo_14_146"
    INDEX 01 02:48:51
  TRACK 147 AUDIO
    TITLE "TOEIC LR Kinnojyukugo_14_147"
    INDEX 01 02:50:40
  TRACK 148 AUDIO
    TITLE "TOEIC LR Kinnojyukugo_14_148"
    INDEX 01 02:51:06
  TRACK 149 AUDIO
    TITLE "TOEIC LR Kinnojyukugo_14_149"
    INDEX 01 02:52:68
  TRACK 150 AUDIO
    TITLE "TOEIC LR Kinnojyukugo_14_150"
    INDEX 01 02:53:70
  TRACK 151 AUDIO
    TITLE "TOEIC LR Kinnojyukugo_14_151"
    INDEX 01 02:55:35
  TRACK 152 AUDIO
    TITLE "TOEIC LR Kinnojyukugo_14_152"
    INDEX 01 02:56:00
  TRACK 153 AUDIO
    TITLE "TOEIC LR Kinnojyukugo_14_153"
    INDEX 01 02:57:26
  TRACK 154 AUDIO
    TITLE "TOEIC LR Kinnojyukugo_14_154"
    INDEX 01 02:58:26
  TRACK 155 AUDIO
    TITLE "TOEIC LR Kinnojyukugo_14_155"
    INDEX 01 02:59:47
  TRACK 156 AUDIO
    TITLE "TOEIC LR Kinnojyukugo_14_156"
    INDEX 01 03:00:21
  TRACK 157 AUDIO
    TITLE "TOEIC LR Kinnojyukugo_14_157"
    INDEX 01 03:01:73
  TRACK 158 AUDIO
    TITLE "TOEIC LR Kinnojyukugo_14_158"
    INDEX 01 03:03:00
  TRACK 159 AUDIO
    TITLE "TOEIC LR Kinnojyukugo_14_159"
    INDEX 01 03:04:38
  TRACK 160 AUDIO
    TITLE "TOEIC LR Kinnojyukugo_14_160"
    INDEX 01 03:05:02
  TRACK 161 AUDIO
    TITLE "TOEIC LR Kinnojyukugo_14_161"
    INDEX 01 03:06:66
  TRACK 162 AUDIO
    TITLE "TOEIC LR Kinnojyukugo_14_162"
    INDEX 01 03:07:64
  TRACK 163 AUDIO
    TITLE "TOEIC LR Kinnojyukugo_14_163"
    INDEX 01 03:09:14
  TRACK 164 AUDIO
    TITLE "TOEIC LR Kinnojyukugo_14_164"
    INDEX 01 03:09:53
  TRACK 165 AUDIO
    TITLE "TOEIC LR Kinnojyukugo_14_165"
    INDEX 01 03:10:64
  TRACK 166 AUDIO
    TITLE "TOEIC LR Kinnojyukugo_14_166"
    INDEX 01 03:12:02
  TRACK 167 AUDIO
    TITLE "TOEIC LR Kinnojyukugo_14_167"
    INDEX 01 03:13:08
  TRACK 168 AUDIO
    TITLE "TOEIC LR Kinnojyukugo_14_168"
    INDEX 01 03:13:45
  TRACK 169 AUDIO
    TITLE "TOEIC LR Kinnojyukugo_14_169"
    INDEX 01 03:14:74
  TRACK 170 AUDIO
    TITLE "TOEIC LR Kinnojyukugo_14_170"
    INDEX 01 03:15:69
  TRACK 171 AUDIO
    TITLE "TOEIC LR Kinnojyukugo_14_171"
    INDEX 01 03:17:27
  TRACK 172 AUDIO
    TITLE "TOEIC LR Kinnojyukugo_14_172"
    INDEX 01 03:17:64
  TRACK 173 AUDIO
    TITLE "TOEIC LR Kinnojyukugo_14_173"
    INDEX 01 03:19:28
  TRACK 174 AUDIO
    TITLE "TOEIC LR Kinnojyukugo_14_174"
    INDEX 01 03:20:27
  TRACK 175 AUDIO
    TITLE "TOEIC LR Kinnojyukugo_14_175"
    INDEX 01 03:22:07
  TRACK 176 AUDIO
    TITLE "TOEIC LR Kinnojyukugo_14_176"
    INDEX 01 03:22:46
  TRACK 177 AUDIO
    TITLE "TOEIC LR Kinnojyukugo_14_177"
    INDEX 01 03:24:21
